# xmcd
#
# Track frame offsets: 
#        150
#        11923
#        25425
#        45428
#        63030
#        79597
#        96569
#        113992
#        132765
#        149329
#
# Disc length: 2251 seconds
#
# Revision: 0
# Processed by: cddbd v1.5.2PL0 Copyright (c) Steve Scherf et al.
# Submitted via: ExactAudioCopy v0.99pb4
#
DISCID=8308c90a
DTITLE=Henning Kvitnes - Tid for latskap
DYEAR=2009
DGENRE=Folk/Rock
TTITLE0=Ut å vekke sola
TTITLE1=Tid for latskap
TTITLE2=Gentlemen
TTITLE3=Sør i Østfold
TTITLE4=Toget til Amerike
TTITLE5=Atlantis
TTITLE6=Skyene i morra
TTITLE7=Ut mot lyset
TTITLE8=Ikke akkurat nå
TTITLE9=Det lysner mot nord
EXTD=
EXTT0=
EXTT1=
EXTT2=
EXTT3=
EXTT4=
EXTT5=
EXTT6=
EXTT7=
EXTT8=
EXTT9=
PLAYORDER=
